<svg width="32" height="32" id="Layer_1" data-name="Layer 1" xmlns="http://www.w3.org/2000/svg" viewBox="0 0 186.43 186.43"><defs><style>.cls-1{fill:#d2a517;}</style></defs><path class="cls-1" d="M137.59,6.61H61.82A55.33,55.33,0,0,0,6.49,61.94v75.77A55.33,55.33,0,0,0,61.82,193h75.77a55.33,55.33,0,0,0,55.33-55.33V61.94A55.33,55.33,0,0,0,137.59,6.61ZM34.37,79.6a69.49,69.49,0,0,1,4-23.9A57.65,57.65,0,0,1,49.77,36.49,51.84,51.84,0,0,1,89.13,19.21h.24c.92,0,1.83,0,2.74.07a51.63,51.63,0,0,1,36.54,17.21A59,59,0,0,1,140.14,55.7a68.11,68.11,0,0,1,4.08,23.9,72.69,72.69,0,0,1-1.53,15.06v1.17a17.27,17.27,0,0,1-3.51,10.1,2.6,2.6,0,0,1-.1.25,16.52,16.52,0,0,1-9.67,6l-.17,0c-.48.09-1,.17-1.45.22-.28,0-.57,0-.86,0s-.51,0-.78,0H126a10,10,0,0,1-10-10V75.88a10,10,0,0,1,10-10,14.32,14.32,0,0,1,2.55.26,49.47,49.47,0,0,0-3.76-10.76A41.15,41.15,0,0,0,110.4,38.67a37.88,37.88,0,0,0-21.27-6,37.6,37.6,0,0,0-21.11,6A41.17,41.17,0,0,0,53.6,55.28a48.7,48.7,0,0,0-3.8,10.91,14,14,0,0,1,2.92-.33,10,10,0,0,1,10,10v26.64A10,10,0,0,1,58,111l0,0a9.89,9.89,0,0,1-3.19,1.23l-.12,0c-.26.05-.52.09-.79.12s-.49,0-.74,0l-.31,0h-.32c-.36,0-.7,0-1.05,0A16.46,16.46,0,0,1,36.53,98.88C34.2,91.73,34.37,85.16,34.37,79.6Zm127.32,89.53a35,35,0,0,1-8.68,5.79A55.63,55.63,0,0,1,141.79,179a46.23,46.23,0,0,1-10.94,1.45q-10.86,0-17.92-2.26A64,64,0,0,1,100.81,173q-5.07-2.9-10-5.16a28.44,28.44,0,0,0-11.85-2.26,13.66,13.66,0,0,0-5.79,1.09q-2.35,1.08-4.53,2.17a11.19,11.19,0,0,1-5.06,1.08,6.73,6.73,0,0,1-5.16-2.26,7.4,7.4,0,0,1-2.08-5.15,6.21,6.21,0,0,1,4.16-6.34L82,148.47a56.91,56.91,0,0,1-14.91-4.22A57.85,57.85,0,0,1,47.71,130.5,60.31,60.31,0,0,1,38.79,118a171.5,171.5,0,0,0,22.74,5.07,43.24,43.24,0,0,0,6.44,5,42.67,42.67,0,0,0,23.43,6.51A43,43,0,0,0,115,128.15a42.3,42.3,0,0,0,6.41-5,170.91,170.91,0,0,0,22.78-5,61.79,61.79,0,0,1-8.92,12.41,58,58,0,0,1-19.36,13.75,55.94,55.94,0,0,1-11.15,3.54l-15.45,5.42a31.81,31.81,0,0,1,7.87,1.9A94.62,94.62,0,0,1,107.87,160a95.46,95.46,0,0,0,10.67,4.89,36.12,36.12,0,0,0,13,2.17,25.39,25.39,0,0,0,10.49-1.9,50.78,50.78,0,0,0,6.88-3.71,45.42,45.42,0,0,0,5-3.89,6.49,6.49,0,0,1,4.44-1.9,6.41,6.41,0,0,1,4.7,2,6.63,6.63,0,0,1,2,4.89C165,164.81,163.92,167,161.69,169.13Z" transform="translate(-6.49 -6.61)"/></svg>