<svg id="Layer_1" data-name="Layer 1" xmlns="http://www.w3.org/2000/svg" viewBox="0 0 608.54 144.16"><defs><style>.cls-1{fill:#fff;}</style></defs><path class="cls-1" d="M-166.47,135.74a53.11,53.11,0,0,1-19.5-3.3,52.14,52.14,0,0,1-16.2-10.5,7.09,7.09,0,0,1-1.72-2.25,6.29,6.29,0,0,1-.68-2.85,6.13,6.13,0,0,1,1.73-4.27,5.55,5.55,0,0,1,4.27-1.88,5.17,5.17,0,0,1,3.75,1.65,42.76,42.76,0,0,0,12.68,8.7,37.8,37.8,0,0,0,15.37,3,31.68,31.68,0,0,0,11.85-2.1,20.8,20.8,0,0,0,8.4-5.85,13.12,13.12,0,0,0,3.15-8.7,14.58,14.58,0,0,0-3.37-9.9A25.23,25.23,0,0,0-156,91a90.68,90.68,0,0,0-13.73-4.5,89.51,89.51,0,0,1-12.67-4,37.93,37.93,0,0,1-10.05-5.85,24,24,0,0,1-6.6-8.55,28.06,28.06,0,0,1-2.33-11.93,25.2,25.2,0,0,1,4.5-14.92,29.9,29.9,0,0,1,12.53-10A44.44,44.44,0,0,1-166,27.74a50,50,0,0,1,17.33,3A33.54,33.54,0,0,1-135.57,39q3,2.85,3,5.7a5.59,5.59,0,0,1-1.87,4,5.91,5.91,0,0,1-4.28,1.87,4.77,4.77,0,0,1-3-1,25.66,25.66,0,0,0-6.52-5.1,40.64,40.64,0,0,0-8.55-3.6A32.53,32.53,0,0,0-166,39.44a33.63,33.63,0,0,0-12.15,2,19.08,19.08,0,0,0-8.17,5.62,13.36,13.36,0,0,0-2.93,8.7,13.51,13.51,0,0,0,3.3,9.38,24.25,24.25,0,0,0,8.85,6,95.69,95.69,0,0,0,12.3,4.12,121.4,121.4,0,0,1,13.58,4.13,41.31,41.31,0,0,1,10.72,5.77,23.2,23.2,0,0,1,7,8.78,31,31,0,0,1,2.47,13.12,24.5,24.5,0,0,1-4.65,14.7A31.85,31.85,0,0,1-148.39,132,42.22,42.22,0,0,1-166.47,135.74Z" transform="translate(204.57 -27.74)"/><path class="cls-1" d="M60.18,56.69a5.75,5.75,0,0,1,4.35,1.73,6.13,6.13,0,0,1,1.65,4.42v40.8q0,15.15-8.48,23.48t-23.62,8.32q-15,0-23.48-8.32T2.13,103.64V62.84a6,6,0,0,1,1.72-4.42,5.82,5.82,0,0,1,4.28-1.73,5.75,5.75,0,0,1,4.35,1.73,6.13,6.13,0,0,1,1.65,4.42v40.8q0,10.2,5.25,15.45t14.7,5.25q9.6,0,14.85-5.25t5.25-15.45V62.84a6.13,6.13,0,0,1,1.65-4.42A5.75,5.75,0,0,1,60.18,56.69Z" transform="translate(204.57 -27.74)"/><path class="cls-1" d="M93.78,45.44q-3.75,0-5.55-1.5a5.71,5.71,0,0,1-1.8-4.65v-2.1a5.5,5.5,0,0,1,1.95-4.65A8.94,8.94,0,0,1,93.93,31a8.28,8.28,0,0,1,5.4,1.5,5.71,5.71,0,0,1,1.8,4.65v2.1a5.6,5.6,0,0,1-1.88,4.65A8.59,8.59,0,0,1,93.78,45.44Zm6.15,82.65a6.06,6.06,0,0,1-1.73,4.35,5.67,5.67,0,0,1-4.27,1.8,5.87,5.87,0,0,1-4.43-1.8,6.05,6.05,0,0,1-1.72-4.35V61.64a6.05,6.05,0,0,1,1.72-4.35,5.87,5.87,0,0,1,4.43-1.8,5.67,5.67,0,0,1,4.27,1.8,6.06,6.06,0,0,1,1.73,4.35Z" transform="translate(204.57 -27.74)"/><path class="cls-1" d="M170.73,123.14a5.65,5.65,0,0,1,4.05,1.58,5.25,5.25,0,0,1,1.65,4,5.33,5.33,0,0,1-1.65,3.9,5.51,5.51,0,0,1-4.05,1.65h-48.6a5.21,5.21,0,0,1-4.28-2,5.13,5.13,0,0,1-1.42-3.6,7.63,7.63,0,0,1,.37-2.55,9.1,9.1,0,0,1,1.43-2.4l42.75-58,.3,1.65H125a5.51,5.51,0,0,1-4-1.65,5.33,5.33,0,0,1-1.65-3.9,5.25,5.25,0,0,1,1.65-4,5.65,5.65,0,0,1,4-1.58H171A5.15,5.15,0,0,1,175,58a6.09,6.09,0,0,1,1.58,4.27,15.74,15.74,0,0,1-.45,2.1,7.1,7.1,0,0,1-1.2,2.25l-42.45,57.3-1-.75Z" transform="translate(204.57 -27.74)"/><path class="cls-1" d="M242.88,123.14a5.68,5.68,0,0,1,4.05,1.58,5.29,5.29,0,0,1,1.65,4,5.37,5.37,0,0,1-1.65,3.9,5.54,5.54,0,0,1-4.05,1.65h-48.6a5.21,5.21,0,0,1-4.28-2,5.13,5.13,0,0,1-1.42-3.6,7.63,7.63,0,0,1,.37-2.55,9.1,9.1,0,0,1,1.43-2.4l42.75-58,.3,1.65h-36.3a5.49,5.49,0,0,1-4-1.65,5.29,5.29,0,0,1-1.65-3.9,5.22,5.22,0,0,1,1.65-4,5.63,5.63,0,0,1,4-1.58h46.05a5.16,5.16,0,0,1,4,1.73,6.09,6.09,0,0,1,1.58,4.27,17.49,17.49,0,0,1-.45,2.1,7.31,7.31,0,0,1-1.2,2.25l-42.45,57.3-1-.75Z" transform="translate(204.57 -27.74)"/><path class="cls-1" d="M300.18,135.74q-12.17,0-21.16-5.1a35.88,35.88,0,0,1-13.95-14A41.84,41.84,0,0,1,260.13,96q0-13,5.17-22.27a36.7,36.7,0,0,1,13.5-14.1,34.33,34.33,0,0,1,17.63-4.88,36,36,0,0,1,13.34,2.55,33.3,33.3,0,0,1,11.41,7.5,38.62,38.62,0,0,1,7.95,11.7,39.19,39.19,0,0,1,3.14,15.3,5.06,5.06,0,0,1-1.79,4,6.22,6.22,0,0,1-4.21,1.57H267L264.32,87h57.61l-2.41,2.1v-3.3a18.64,18.64,0,0,0-4-10.57A24.37,24.37,0,0,0,296.43,66a25.4,25.4,0,0,0-8.93,1.65,22.54,22.54,0,0,0-7.95,5.1,25.29,25.29,0,0,0-5.7,9,36.61,36.61,0,0,0-2.17,13.35,32,32,0,0,0,3.52,15.3A26.65,26.65,0,0,0,285,120.82a27.8,27.8,0,0,0,14.71,3.82,28.08,28.08,0,0,0,9.15-1.35,25.4,25.4,0,0,0,6.67-3.37,32.8,32.8,0,0,0,4.72-4.13,6.82,6.82,0,0,1,3.91-1.35,5.12,5.12,0,0,1,5.09,5.1,6.14,6.14,0,0,1-2.39,4.65,38.58,38.58,0,0,1-11.48,8.1A34.49,34.49,0,0,1,300.18,135.74Z" transform="translate(204.57 -27.74)"/><path class="cls-1" d="M345.77,121.94a7.23,7.23,0,0,1-1.12-4.12,4.87,4.87,0,0,1,2.48-3.83,5.83,5.83,0,0,1,3.67-.9,5.52,5.52,0,0,1,3.68,2,33.3,33.3,0,0,0,9.6,7.88,27.36,27.36,0,0,0,13.19,2.92,30.83,30.83,0,0,0,7.13-1.2,13.28,13.28,0,0,0,6.15-3.67,9.76,9.76,0,0,0,2.47-7,8.89,8.89,0,0,0-2.54-6.67,19.47,19.47,0,0,0-6.68-4,82.22,82.22,0,0,0-8.78-2.78c-3.29-.9-6.55-1.9-9.75-3a35.56,35.56,0,0,1-8.62-4.27,20.42,20.42,0,0,1-6.15-6.6,19.2,19.2,0,0,1-2.32-9.83,19.08,19.08,0,0,1,3.67-11.7,23.87,23.87,0,0,1,9.83-7.65,33.53,33.53,0,0,1,13.65-2.7,42.15,42.15,0,0,1,8.77,1A33.81,33.81,0,0,1,393,59a25.2,25.2,0,0,1,7.66,6.37,6.08,6.08,0,0,1,1.5,3.75,4.86,4.86,0,0,1-1.95,4,5.76,5.76,0,0,1-3.68,1.13,4.84,4.84,0,0,1-3.37-1.43,21.51,21.51,0,0,0-8-5.92,26.21,26.21,0,0,0-10.42-2,22.06,22.06,0,0,0-6.9,1.13,13.82,13.82,0,0,0-5.78,3.52,10.13,10.13,0,0,0,.38,13.35,18.34,18.34,0,0,0,6.9,4.13q4.34,1.58,9.6,3.07c3.19.8,6.27,1.73,9.22,2.78a33.07,33.07,0,0,1,8,4.12,18.53,18.53,0,0,1,5.7,6.53,21.31,21.31,0,0,1,2.1,10,19,19,0,0,1-3.9,11.93,24.6,24.6,0,0,1-10.28,7.65,35.7,35.7,0,0,1-13.72,2.62,45.7,45.7,0,0,1-16.35-3.07A31.67,31.67,0,0,1,345.77,121.94Z" transform="translate(204.57 -27.74)"/><path class="cls-1" d="M-101.43,111.11c.31,0,.62,0,.94,0h.29l.28,0c.22,0,.44,0,.66-.05s.47-.06.71-.1l.1,0a8.8,8.8,0,0,0,2.85-1.1l0,0a8.94,8.94,0,0,0,4.26-7.6V78.41a9,9,0,0,0-8.94-9,12.42,12.42,0,0,0-2.61.29A43.32,43.32,0,0,1-99.52,60,36.79,36.79,0,0,1-86.63,45.14a33.64,33.64,0,0,1,18.88-5.4,33.86,33.86,0,0,1,19,5.4,36.72,36.72,0,0,1,12.9,14.93,44,44,0,0,1,3.36,9.62,12.24,12.24,0,0,0-2.28-.23,9,9,0,0,0-8.94,9v23.81a9,9,0,0,0,8.94,9h.11c.24,0,.46,0,.7,0s.52,0,.77,0c.44,0,.87-.11,1.29-.19l.16,0a14.77,14.77,0,0,0,8.65-5.36c0-.07,0-.15.08-.22a15.38,15.38,0,0,0,3.14-9v-1A65.24,65.24,0,0,0-18.5,81.74a61,61,0,0,0-3.64-21.37A52.74,52.74,0,0,0-32.41,43.19,46.75,46.75,0,0,0-48,31.79a46.44,46.44,0,0,0-17.08-4c-.81,0-1.62-.07-2.44-.07h-.22a47,47,0,0,0-19.6,4.05,46.65,46.65,0,0,0-15.6,11.4,51.72,51.72,0,0,0-10.2,17.18,62.11,62.11,0,0,0-3.57,21.37c0,5-.14,10.84,1.93,17.24A14.72,14.72,0,0,0-101.43,111.11Z" transform="translate(204.57 -27.74)"/><path class="cls-1" d="M-1.65,151.52a5.75,5.75,0,0,0-4.21-1.78,5.81,5.81,0,0,0-4,1.7,43.83,43.83,0,0,1-4.45,3.48,45.51,45.51,0,0,1-6.15,3.32,22.68,22.68,0,0,1-9.38,1.69A32,32,0,0,1-41.45,158,84.13,84.13,0,0,1-51,153.62a86.55,86.55,0,0,0-9.54-4.36,28.79,28.79,0,0,0-7-1.7l13.81-4.84a50.6,50.6,0,0,0,10-3.17,51.74,51.74,0,0,0,17.31-12.3,54.93,54.93,0,0,0,8-11.09,151.68,151.68,0,0,1-20.37,4.51,38.52,38.52,0,0,1-5.73,4.48A38.44,38.44,0,0,1-65.72,131a38.16,38.16,0,0,1-21-5.82,39.52,39.52,0,0,1-5.77-4.5,154.53,154.53,0,0,1-20.33-4.54,54.22,54.22,0,0,0,8,11.14,51.74,51.74,0,0,0,17.31,12.3,51,51,0,0,0,13.34,3.77l-19.25,6.91a5.54,5.54,0,0,0-3.72,5.66,6.63,6.63,0,0,0,1.86,4.61,6,6,0,0,0,4.61,2,10,10,0,0,0,4.53-1c1.3-.65,2.65-1.29,4-1.94a12.28,12.28,0,0,1,5.18-1,25.39,25.39,0,0,1,10.59,2q4.46,2,9,4.61a57,57,0,0,0,10.84,4.61,53.36,53.36,0,0,0,16,2,41.32,41.32,0,0,0,9.79-1.3,49.83,49.83,0,0,0,10-3.64,31.08,31.08,0,0,0,7.76-5.18q3-2.82,3-5.9A6,6,0,0,0-1.65,151.52Z" transform="translate(204.57 -27.74)"/></svg>